{"asset":{"version":"2.0","generator":"babylon.js glTF exporter for 3dsmax 2022 v20220628.14"},"scene":0,"scenes":[{"nodes":[0]}],"nodes":[{"children":[1],"rotation":[0.7071068,0.0,0.0,0.7071067],"scale":[0.393700778,0.393700778,0.393700778],"name":"Model"},{"children":[2],"name":"Component_19_1"},{"children":[3],"name":"Component_17_3"},{"mesh":0,"translation":[0.0,-3.01722849E-07,-6.902614],"name":"Mesh10"}],"meshes":[{"primitives":[{"attributes":{"POSITION":1,"NORMAL":2,"TEXCOORD_0":3},"indices":0,"material":0}],"name":"Mesh10"}],"accessors":[{"bufferView":0,"componentType":5123,"count":600,"type":"SCALAR","name":"accessorIndices"},{"bufferView":1,"componentType":5126,"count":288,"max":[-1470.98621,-1053.73877,-266.926147],"min":[-1474.79626,-1101.99878,-356.340851],"type":"VEC3","name":"accessorPositions"},{"bufferView":1,"byteOffset":3456,"componentType":5126,"count":288,"type":"VEC3","name":"accessorNormals"},{"bufferView":2,"componentType":5126,"count":288,"type":"VEC2","name":"accessorUVs"}],"bufferViews":[{"buffer":0,"byteLength":1200,"name":"bufferViewScalar"},{"buffer":0,"byteOffset":1200,"byteLength":6912,"byteStride":12,"name":"bufferViewFloatVec3"},{"buffer":0,"byteOffset":8112,"byteLength":2304,"byteStride":8,"name":"bufferViewFloatVec2"}],"buffers":[{"uri":"2.bin","byteLength":10416}],"materials":[{"pbrMetallicRoughness":{"baseColorFactor":[0.7490196,0.294117659,0.294117659,1.0],"metallicFactor":0.0,"roughnessFactor":0.450053632},"name":"02 - Default","extras":{"????":false}}]}