{"asset":{"version":"2.0","generator":"babylon.js glTF exporter for 3dsmax 2022 v20220628.14"},"scene":0,"scenes":[{"nodes":[0]}],"nodes":[{"children":[1],"rotation":[0.7071068,0.0,0.0,0.7071067],"scale":[0.393700778,0.393700778,0.393700778],"name":"Model"},{"children":[2],"name":"Component_19_1"},{"children":[3],"name":"Component_20_2"},{"mesh":0,"name":"Mesh24"}],"meshes":[{"primitives":[{"attributes":{"POSITION":1,"NORMAL":2,"TEXCOORD_0":3},"indices":0,"material":0}],"name":"Mesh24"}],"accessors":[{"bufferView":0,"componentType":5123,"count":1080,"type":"SCALAR","name":"accessorIndices"},{"bufferView":1,"componentType":5126,"count":508,"max":[-1470.98621,-990.2387,-93.91429],"min":[-1474.79626,-1038.49878,-231.582291],"type":"VEC3","name":"accessorPositions"},{"bufferView":1,"byteOffset":6096,"componentType":5126,"count":508,"type":"VEC3","name":"accessorNormals"},{"bufferView":2,"componentType":5126,"count":508,"type":"VEC2","name":"accessorUVs"}],"bufferViews":[{"buffer":0,"byteLength":2160,"name":"bufferViewScalar"},{"buffer":0,"byteOffset":2160,"byteLength":12192,"byteStride":12,"name":"bufferViewFloatVec3"},{"buffer":0,"byteOffset":14352,"byteLength":4064,"byteStride":8,"name":"bufferViewFloatVec2"}],"buffers":[{"uri":"7.bin","byteLength":18416}],"materials":[{"pbrMetallicRoughness":{"baseColorFactor":[0.7490196,0.294117659,0.294117659,1.0],"metallicFactor":0.0,"roughnessFactor":0.450053632},"name":"02 - Default","extras":{"????":false}}]}