{
    "asset": {
        "generator": "FBX2glTF v0.9.7",
        "version": "2.0"
    },
    "scene": 0,
    "buffers": [
        {
            "byteLength": 18416,
            "uri": "buffer.bin"
        }
    ],
    "bufferViews": [
        {
            "buffer": 0,
            "byteLength": 2160,
            "byteOffset": 0,
            "target": 34963
        },
        {
            "buffer": 0,
            "byteLength": 6096,
            "byteOffset": 2160,
            "target": 34962
        },
        {
            "buffer": 0,
            "byteLength": 6096,
            "byteOffset": 8256,
            "target": 34962
        },
        {
            "buffer": 0,
            "byteLength": 4064,
            "byteOffset": 14352,
            "target": 34962
        }
    ],
    "scenes": [
        {
            "name": "Root Scene",
            "nodes": [
                0
            ]
        }
    ],
    "accessors": [
        {
            "componentType": 5123,
            "type": "SCALAR",
            "count": 1080,
            "bufferView": 0,
            "byteOffset": 0
        },
        {
            "componentType": 5126,
            "type": "VEC3",
            "count": 508,
            "bufferView": 1,
            "byteOffset": 0,
            "min": [
                -580.62841796875,
                36.9741287231445,
                -433.857757568359
            ],
            "max": [
                -579.12841796875,
                91.1741256713867,
                -414.857757568359
            ]
        },
        {
            "componentType": 5126,
            "type": "VEC3",
            "count": 508,
            "bufferView": 2,
            "byteOffset": 0
        },
        {
            "componentType": 5126,
            "type": "VEC2",
            "count": 508,
            "bufferView": 3,
            "byteOffset": 0
        }
    ],
    "samplers": [
        {}
    ],
    "materials": [
        {
            "name": "_Gray6_",
            "alphaMode": "OPAQUE",
            "extras": {
                "fromFBX": {
                    "shadingModel": "Phong",
                    "isTruePBR": false
                }
            },
            "pbrMetallicRoughness": {
                "baseColorFactor": [
                    0.376470595598221,
                    0.376470595598221,
                    0.376470595598221,
                    1.0
                ],
                "metallicFactor": 0.400000005960464,
                "roughnessFactor": 0.301511347293854
            }
        }
    ],
    "meshes": [
        {
            "name": "Mesh33",
            "primitives": [
                {
                    "material": 0,
                    "mode": 4,
                    "attributes": {
                        "NORMAL": 2,
                        "POSITION": 1,
                        "TEXCOORD_0": 3
                    },
                    "indices": 0
                }
            ]
        }
    ],
    "nodes": [
        {
            "name": "RootNode",
            "translation": [
                0.0,
                0.0,
                0.0
            ],
            "rotation": [
                0.0,
                0.0,
                0.0,
                1.0
            ],
            "scale": [
                1.0,
                1.0,
                1.0
            ],
            "children": [
                1
            ]
        },
        {
            "name": "Model",
            "translation": [
                0.0,
                0.0,
                0.0
            ],
            "rotation": [
                2.18556959197258e-08,
                0.0,
                0.0,
                1.0
            ],
            "scale": [
                1.00000059604645,
                1.00000059604645,
                1.00000059604645
            ],
            "children": [
                2
            ]
        },
        {
            "name": "Component_19_1",
            "translation": [
                0.0,
                0.0,
                0.0
            ],
            "rotation": [
                3.30872245021211e-24,
                0.0,
                0.0,
                1.0
            ],
            "scale": [
                1.0,
                1.0,
                1.0
            ],
            "children": [
                3
            ]
        },
        {
            "name": "Component_20_3",
            "translation": [
                0.0,
                0.0,
                0.0
            ],
            "rotation": [
                3.30872245021211e-24,
                0.0,
                0.0,
                1.0
            ],
            "scale": [
                1.0,
                1.0,
                1.0
            ],
            "children": [
                4
            ]
        },
        {
            "name": "Mesh33",
            "translation": [
                0.0,
                0.0,
                0.0
            ],
            "rotation": [
                3.30872245021211e-24,
                0.0,
                0.0,
                1.0
            ],
            "scale": [
                1.0,
                1.0,
                1.0
            ],
            "mesh": 0
        }
    ]
}